<svg xmlns="http://www.w3.org/2000/svg" width="59.468" height="19.208" viewBox="0 0 59.468 19.208">
    <g transform="translate(-100.532 -624.402)">
        <path d="M260.238,230.349l-7.787,18.577h-5.079L243.541,234.1a2.031,2.031,0,0,0-1.143-1.63,20.217,20.217,0,0,0-4.737-1.583l.111-.539h8.177a2.244,2.244,0,0,1,2.216,1.894l2.025,10.75,5-12.644Zm19.9,12.514c.021-4.9-6.78-5.173-6.733-7.364.016-.665.651-1.377,2.035-1.557a9.077,9.077,0,0,1,4.743.831l.84-3.942a12.98,12.98,0,0,0-4.5-.822c-4.75,0-8.091,2.525-8.116,6.143-.032,2.673,2.387,4.162,4.2,5.055,1.876.911,2.5,1.492,2.494,2.309-.011,1.244-1.5,1.8-2.873,1.818a10.031,10.031,0,0,1-4.936-1.176l-.873,4.07a14.485,14.485,0,0,0,5.344.988c5.049,0,8.353-2.492,8.369-6.355m12.544,6.063h4.442l-3.882-18.577h-4.1a2.184,2.184,0,0,0-2.044,1.365l-7.211,17.212h5.047l1-2.774H292.1Zm-5.365-6.58,2.53-6.976,1.455,6.976Zm-20.219-12-3.972,18.577h-4.8l3.972-18.577Z"
              transform="translate(-137.129 394.392)" fill="#002463"/>
    </g>
</svg>